<svg width="46" height="34" viewBox="0 0 46 34" fill="none" xmlns="http://www.w3.org/2000/svg">
<path d="M16.6771 27.5C16.4295 29.2381 15.563 30.8285 14.2369 31.979C12.9108 33.1296 11.214 33.763 9.45837 33.763C7.70271 33.763 6.00599 33.1296 4.67988 31.979C3.35376 30.8285 2.48729 29.2381 2.23962 27.5H0.083374V2.49996C0.083374 1.94743 0.302867 1.41752 0.693568 1.02682C1.08427 0.63612 1.61417 0.416626 2.16671 0.416626H31.3334C31.8859 0.416626 32.4158 0.63612 32.8065 1.02682C33.1972 1.41752 33.4167 1.94743 33.4167 2.49996V6.66663H39.6667L45.9167 15.1166V27.5H41.6771C41.4295 29.2381 40.563 30.8285 39.2369 31.979C37.9108 33.1296 36.214 33.763 34.4584 33.763C32.7027 33.763 31.006 33.1296 29.6799 31.979C28.3538 30.8285 27.4873 29.2381 27.2396 27.5H16.6771ZM29.25 4.58329H4.25004V21.3541C5.07204 20.515 6.08463 19.8868 7.20161 19.5231C8.31859 19.1594 9.5069 19.071 10.6654 19.2654C11.8239 19.4597 12.9183 19.9311 13.8555 20.6393C14.7926 21.3476 15.5448 22.2718 16.048 23.3333H27.8688C28.2188 22.5979 28.6875 21.9291 29.25 21.3541V4.58329ZM33.4167 17.0833H41.75V16.4895L37.5667 10.8333H33.4167V17.0833ZM34.4584 29.5833C35.2874 29.5833 36.0826 29.254 36.6688 28.6677C37.2551 28.0815 37.5844 27.2863 37.5844 26.4573C37.5844 25.6282 37.2551 24.8331 36.6688 24.2468C36.0826 23.6606 35.2874 23.3312 34.4584 23.3312C33.6293 23.3312 32.8342 23.6606 32.2479 24.2468C31.6617 24.8331 31.3323 25.6282 31.3323 26.4573C31.3323 27.2863 31.6617 28.0815 32.2479 28.6677C32.8342 29.254 33.6293 29.5833 34.4584 29.5833ZM12.5834 26.4583C12.5834 26.0479 12.5025 25.6416 12.3455 25.2624C12.1885 24.8833 11.9583 24.5388 11.6681 24.2486C11.3779 23.9584 11.0334 23.7282 10.6543 23.5712C10.2751 23.4141 9.86875 23.3333 9.45837 23.3333C9.04799 23.3333 8.64163 23.4141 8.26249 23.5712C7.88335 23.7282 7.53885 23.9584 7.24866 24.2486C6.95848 24.5388 6.7283 24.8833 6.57125 25.2624C6.4142 25.6416 6.33337 26.0479 6.33337 26.4583C6.33337 27.2871 6.66261 28.082 7.24866 28.668C7.83472 29.2541 8.62957 29.5833 9.45837 29.5833C10.2872 29.5833 11.082 29.2541 11.6681 28.668C12.2541 28.082 12.5834 27.2871 12.5834 26.4583Z" fill="#FFA927"/>
</svg>
