<svg width="46" height="40" viewBox="0 0 46 40" fill="none" xmlns="http://www.w3.org/2000/svg">
<path d="M29.25 0.166639C30.7131 0.166465 32.1505 0.551497 33.4176 1.28302C34.6847 2.01455 35.7368 3.06678 36.4683 4.33392C37.1997 5.60106 37.5846 7.03843 37.5844 8.50153C37.5841 9.96462 37.1986 11.4019 36.4667 12.6687L45.9167 12.6666V16.8333H41.75V37.6666C41.75 38.2192 41.5305 38.7491 41.1398 39.1398C40.7491 39.5305 40.2192 39.75 39.6667 39.75H6.33337C5.78084 39.75 5.25094 39.5305 4.86023 39.1398C4.46953 38.7491 4.25004 38.2192 4.25004 37.6666V16.8333H0.083374V12.6666L9.53337 12.6687C8.49975 10.8789 8.16814 8.76884 8.60292 6.74825C9.0377 4.72766 10.2078 2.94074 11.8862 1.73446C13.5645 0.528174 15.6311 -0.0113826 17.6849 0.220553C19.7387 0.452488 21.633 1.43936 23 2.98956C23.7804 2.10077 24.7418 1.38908 25.8198 0.902218C26.8977 0.415352 28.0673 0.164555 29.25 0.166639ZM20.9167 16.8333H8.41671V35.5833H20.9167V16.8333ZM37.5834 16.8333H25.0834V35.5833H37.5834V16.8333ZM16.75 4.33331C15.6688 4.32847 14.6281 4.74411 13.8476 5.49243C13.0672 6.24075 12.6082 7.26313 12.5677 8.3436C12.5271 9.42406 12.9081 10.478 13.6302 11.2827C14.3523 12.0875 15.359 12.58 16.4375 12.6562L16.75 12.6666H20.9167V8.49997C20.9167 7.50427 20.5602 6.54146 19.9117 5.78593C19.2632 5.03039 18.3655 4.53207 17.3813 4.38122L17.0605 4.34372L16.75 4.33331ZM29.25 4.33331C28.1988 4.33297 27.1864 4.72999 26.4156 5.44476C25.6448 6.15953 25.1726 7.13923 25.0938 8.18747L25.0834 8.49997V12.6666H29.25C30.3012 12.667 31.3137 12.27 32.0845 11.5552C32.8553 10.8404 33.3274 9.86071 33.4063 8.81247L33.4167 8.49997C33.4167 7.3949 32.9777 6.33509 32.1963 5.55369C31.4149 4.77229 30.3551 4.33331 29.25 4.33331Z" fill="#FFA927"/>
</svg>
