<svg width="42" height="38" viewBox="0 0 42 38" fill="none" xmlns="http://www.w3.org/2000/svg">
<path d="M2.25002 0.25H39.75C40.3026 0.25 40.8325 0.469493 41.2232 0.860194C41.6139 1.25089 41.8334 1.7808 41.8334 2.33333V35.6667C41.8334 36.2192 41.6139 36.7491 41.2232 37.1398C40.8325 37.5305 40.3026 37.75 39.75 37.75H2.25002C1.69749 37.75 1.16758 37.5305 0.776881 37.1398C0.38618 36.7491 0.166687 36.2192 0.166687 35.6667V2.33333C0.166687 1.7808 0.38618 1.25089 0.776881 0.860194C1.16758 0.469493 1.69749 0.25 2.25002 0.25ZM37.6667 16.9167H4.33335V33.5833H37.6667V16.9167ZM37.6667 12.75V4.41667H4.33335V12.75H37.6667ZM25.1667 25.25H33.5V29.4167H25.1667V25.25Z" fill="#FFA927"/>
</svg>
