<svg width="34" height="44" viewBox="0 0 34 44" fill="none" xmlns="http://www.w3.org/2000/svg">
<path d="M14.9167 33.3708C10.714 32.836 6.87265 30.7211 4.17335 27.4558C1.47405 24.1904 0.119373 20.0198 0.384667 15.7916C0.649961 11.5633 2.51531 7.59473 5.60159 4.69242C8.68787 1.79011 12.7635 0.171882 17 0.166631C21.2418 0.163472 25.3251 1.77775 28.4181 4.68054C31.511 7.58333 33.3808 11.5562 33.6464 15.7896C33.912 20.0231 32.5535 24.1985 29.8477 27.4651C27.1418 30.7317 23.2923 32.8437 19.0834 33.3708V37.6916C27.3042 37.8833 33.6667 39.1979 33.6667 40.7916C33.6667 42.5166 26.2042 43.9166 17 43.9166C7.79587 43.9166 0.333374 42.5166 0.333374 40.7916C0.333374 39.1979 6.69587 37.8833 14.9167 37.6916V33.3708ZM17 29.3333C20.3152 29.3333 23.4947 28.0163 25.8389 25.6721C28.1831 23.3279 29.5 20.1485 29.5 16.8333C29.5 13.5181 28.1831 10.3387 25.8389 7.99446C23.4947 5.65026 20.3152 4.3333 17 4.3333C13.6848 4.3333 10.5054 5.65026 8.16121 7.99446C5.817 10.3387 4.50004 13.5181 4.50004 16.8333C4.50004 20.1485 5.817 23.3279 8.16121 25.6721C10.5054 28.0163 13.6848 29.3333 17 29.3333ZM17 21C15.895 21 14.8352 20.561 14.0538 19.7796C13.2724 18.9982 12.8334 17.9384 12.8334 16.8333C12.8334 15.7282 13.2724 14.6684 14.0538 13.887C14.8352 13.1056 15.895 12.6666 17 12.6666C18.1051 12.6666 19.1649 13.1056 19.9463 13.887C20.7277 14.6684 21.1667 15.7282 21.1667 16.8333C21.1667 17.9384 20.7277 18.9982 19.9463 19.7796C19.1649 20.561 18.1051 21 17 21Z" fill="#FFA927"/>
</svg>
